# xmcd
#
# Track frame offsets: 
#        150
#        18707
#        47712
#        67975
#        81275
#        96182
#        111650
#        126605
#        148832
#        176800
#        196425
#        210775
#        227575
#
# Disc length: 3248 seconds
#
# Revision: 2
# Processed by: cddbd v1.5.2PL0 Copyright (c) Steve Scherf et al.
# Submitted via: ExactAudioCopy v0.95b4
#
DISCID=c20cae0d
DTITLE=Jheena Lodwick - All My Loving
DYEAR=2004
DGENRE=Jazz
TTITLE0=Emerald City
TTITLE1=It's Now or Never
TTITLE2=Too Young
TTITLE3=All My Loving
TTITLE4=Jambalaya
TTITLE5=If You Love Me
TTITLE6=Are You Lonesome Tonight
TTITLE7=Perhaps Love
TTITLE8=Danny Boy
TTITLE9=Tammy
TTITLE10=Song Sung Blue
TTITLE11=Morning Town Ride
TTITLE12=By The Time I Get To Phoenix
EXTD=YEAR: 2004
EXTT0=
EXTT1=
EXTT2=
EXTT3=
EXTT4=
EXTT5=
EXTT6=
EXTT7=
EXTT8=
EXTT9=
EXTT10=
EXTT11=
EXTT12=
PLAYORDER=
